<?xml version="1.0" encoding="UTF-8"?> <svg xmlns="http://www.w3.org/2000/svg" width="227" height="102" viewBox="0 0 227 102" fill="none"><path d="M1.61218 1.73218H35.4719C37.3936 1.73218 38.9855 2.10505 40.2475 2.8508C41.5096 3.56786 42.4561 4.50004 43.0871 5.64734C43.7468 6.79464 44.0766 7.99931 44.0766 9.26134C44.0766 10.5234 43.7468 11.7567 43.0871 12.9614C42.4274 14.1374 41.4235 15.0982 40.0754 15.844C38.756 16.5897 37.0924 16.9626 35.0847 16.9626C35.0847 16.9626 35.0703 16.9626 35.0416 16.9626C35.0416 16.9626 35.0416 16.9769 35.0416 17.0056C35.0703 17.0056 35.0847 17.0056 35.0847 17.0056C37.408 17.0056 39.3297 17.4215 40.8499 18.2533C42.37 19.0851 43.503 20.1463 44.2487 21.4371C44.9945 22.7278 45.3673 24.0902 45.3673 25.5243C45.3673 26.5856 45.1522 27.6181 44.722 28.622C44.3204 29.6259 43.7038 30.5438 42.872 31.3756C42.0402 32.1787 41.0076 32.824 39.7743 33.3116C38.5409 33.7705 37.1068 34 35.4719 34H1.61218C1.61218 32.0496 1.61218 30.1135 1.61218 28.1918C1.61218 26.2414 1.61218 24.291 1.61218 22.3406C1.61218 20.3902 1.61218 18.4541 1.61218 16.5324C1.61218 14.5819 1.61218 12.6315 1.61218 10.6811C1.61218 9.18963 1.61218 7.69814 1.61218 6.20665C1.61218 4.71516 1.61218 3.22367 1.61218 1.73218ZM18.5635 18.6835C18.5635 18.999 18.5635 19.3146 18.5635 19.6301C18.5635 19.9456 18.5635 20.2611 18.5635 20.5766C18.5635 20.806 18.5635 21.0355 18.5635 21.265C18.5635 21.4657 18.5635 21.6665 18.5635 21.8673C18.5635 22.0681 18.5635 22.2689 18.5635 22.4696C18.5635 22.4983 18.5635 22.5127 18.5635 22.5127C18.5635 22.5127 18.5779 22.5127 18.6066 22.5127H24.7159C25.4904 22.5127 26.064 22.3119 26.4369 21.9103C26.8384 21.5088 27.0392 21.0498 27.0392 20.5336C27.0392 20.2754 26.9962 20.046 26.9102 19.8452C26.8241 19.6157 26.695 19.4149 26.5229 19.2428C26.3795 19.0421 26.1788 18.8987 25.9206 18.8126C25.6911 18.6979 25.4187 18.6405 25.1032 18.6405H18.6066C18.6066 18.6405 18.5922 18.6549 18.5635 18.6835ZM18.6066 12.6172C18.5779 12.6172 18.5635 12.6315 18.5635 12.6602C18.5635 12.8323 18.5635 13.0331 18.5635 13.2625C18.5635 13.4633 18.5635 13.6784 18.5635 13.9079C18.5635 14.1087 18.5635 14.3238 18.5635 14.5533C18.5635 14.8688 18.5635 15.1986 18.5635 15.5428C18.5635 15.8583 18.5635 16.1595 18.5635 16.4463C18.5635 16.475 18.5635 16.4893 18.5635 16.4893C18.5635 16.4893 18.5779 16.4893 18.6066 16.4893H24.5008C25.0171 16.4893 25.4473 16.4033 25.7915 16.2312C26.1357 16.0304 26.3939 15.7866 26.566 15.4998C26.7381 15.1843 26.8241 14.8544 26.8241 14.5102C26.8241 14.0226 26.652 13.5924 26.3078 13.2195C25.9923 12.818 25.5191 12.6172 24.888 12.6172H18.6066ZM80.0764 1.73218C80.5927 3.5105 81.0947 5.30315 81.5823 7.11015C82.0985 8.88847 82.6005 10.6811 83.0881 12.4881C83.6044 14.2664 84.1207 16.0591 84.6369 17.8661C85.1532 19.6444 85.6552 21.4371 86.1428 23.2441C86.6591 25.0224 87.161 26.815 87.6486 28.622C88.1649 30.4003 88.6812 32.193 89.1975 34H70.0089L69.2775 29.7837C69.1627 29.7837 69.0623 29.7837 68.9763 29.7837C68.8903 29.7837 68.7899 29.7837 68.6751 29.7837H63.9425C63.8565 29.7837 63.7704 29.7837 63.6844 29.7837C63.5983 29.7837 63.5123 29.7837 63.4262 29.7837L62.6948 34H44.3237C44.84 32.193 45.3419 30.4003 45.8295 28.622C46.3458 26.815 46.8477 25.0224 47.3353 23.2441C47.8516 21.4371 48.3536 19.6444 48.8412 17.8661C49.3575 16.0591 49.8594 14.2664 50.347 12.4881C50.8633 10.6811 51.3652 8.88847 51.8528 7.11015C52.3691 5.30315 52.8711 3.5105 53.3587 1.73218H80.0764ZM63.9425 26.729C63.9425 26.7577 63.9425 26.772 63.9425 26.772C63.9425 26.772 63.9569 26.772 63.9855 26.772H68.7182C68.7468 26.772 68.7612 26.772 68.7612 26.772C68.7612 26.7433 68.7612 26.729 68.7612 26.729C68.7612 26.729 68.7038 26.3848 68.5891 25.6964C68.4744 24.9794 68.3166 24.0902 68.1158 23.0289C67.9437 21.939 67.7573 20.7917 67.5565 19.587C67.3557 18.3537 67.1693 17.1921 66.9972 16.1021C66.8251 15.0122 66.6674 14.123 66.5239 13.4346C66.4092 12.7463 66.3518 12.4021 66.3518 12.4021C66.3518 12.4021 66.3375 12.4021 66.3088 12.4021C66.3088 12.4021 66.2515 12.7463 66.1367 13.4346C66.022 14.123 65.8642 15.0122 65.6635 16.1021C65.4914 17.1921 65.3049 18.3537 65.1042 19.587C64.9034 20.7917 64.7169 21.939 64.5449 23.0289C64.3728 24.0902 64.2293 24.9794 64.1146 25.6964C63.9999 26.3848 63.9425 26.729 63.9425 26.729ZM107.993 21.265C107.993 21.2936 107.993 21.3223 107.993 21.351C108.022 21.351 108.051 21.351 108.08 21.351H124.859V34H90.1386C90.1386 32.2217 90.1386 30.4434 90.1386 28.6651C90.1386 26.8867 90.1386 25.1084 90.1386 23.3301C90.1386 21.5231 90.1386 19.7305 90.1386 17.9521C90.1386 16.1738 90.1386 14.3955 90.1386 12.6172C90.1386 10.8102 90.1386 9.0032 90.1386 7.1962C90.1386 5.36052 90.1386 3.53918 90.1386 1.73218H107.993C107.993 3.36708 107.993 5.00199 107.993 6.63689C107.993 8.24311 107.993 9.86367 107.993 11.4986C107.993 13.1335 107.993 14.7684 107.993 16.4033C107.993 18.0095 107.993 19.6301 107.993 21.265ZM157.845 1.73218V14.8114H147.476C147.476 14.8114 147.461 14.8257 147.433 14.8544C147.433 14.8544 147.418 14.8544 147.39 14.8544C147.39 14.8544 147.39 14.8688 147.39 14.8974C147.39 16.1595 147.39 17.4359 147.39 18.7266C147.39 19.9886 147.39 21.265 147.39 22.5557C147.39 23.8177 147.39 25.0941 147.39 26.3848C147.39 27.6468 147.39 28.9232 147.39 30.2139C147.39 31.4759 147.39 32.738 147.39 34H129.535C129.535 31.8775 129.535 29.755 129.535 27.6325C129.535 25.51 129.535 23.3875 129.535 21.265C129.535 19.1425 129.535 17.02 129.535 14.8974C129.535 14.8688 129.521 14.8544 129.492 14.8544C129.492 14.8257 129.478 14.8114 129.449 14.8114H119.08V1.73218H157.845ZM159.254 34C159.254 31.9349 159.254 29.8697 159.254 27.8046C159.254 25.7394 159.254 23.6743 159.254 21.6092C159.254 19.544 159.254 17.4789 159.254 15.4137C159.254 13.3486 159.254 11.2835 159.254 9.21831C159.254 7.95628 159.254 6.7086 159.254 5.47525C159.254 4.21322 159.254 2.96553 159.254 1.73218H177.109C177.109 4.51438 177.109 7.29659 177.109 10.0788C177.109 12.8323 177.109 15.6002 177.109 18.3824C177.109 20.1033 177.109 21.8386 177.109 23.5882C177.109 25.3092 177.109 27.0445 177.109 28.7941C177.109 30.5151 177.109 32.2504 177.109 34H159.254ZM202.066 35.2907C199.8 35.2907 197.706 35.1473 195.784 34.8605C193.863 34.5737 192.084 34.1578 190.45 33.6128C188.843 33.0678 187.395 32.4081 186.104 31.6337C184.842 30.8593 183.723 29.9844 182.748 29.0092C181.773 28.034 180.956 26.9728 180.296 25.8255C179.665 24.6495 179.192 23.4018 178.876 22.0824C178.561 20.763 178.403 19.3719 178.403 17.9091C178.403 15.5285 178.79 13.3916 179.565 11.4986C180.339 9.60553 181.429 7.97062 182.834 6.59387C184.268 5.2171 185.961 4.0698 187.911 3.15197C189.89 2.23412 192.07 1.56009 194.451 1.12985C196.831 0.670927 199.37 0.441467 202.066 0.441467C206.827 0.441467 210.871 1.01512 214.199 2.16242C217.526 3.30972 220.15 4.95896 222.072 7.11015C224.022 9.26134 225.241 11.8714 225.729 14.9405L207.444 17.9091C207.444 17.2494 207.3 16.6901 207.014 16.2312C206.727 15.7436 206.34 15.3564 205.852 15.0695C205.364 14.7827 204.791 14.5676 204.131 14.4242C203.5 14.2808 202.812 14.2091 202.066 14.2091C201.033 14.2091 200.116 14.3525 199.312 14.6393C198.509 14.8975 197.864 15.299 197.376 15.844C196.917 16.3603 196.688 17.02 196.688 17.8231C196.688 18.3107 196.774 18.7552 196.946 19.1568C197.118 19.5584 197.362 19.9169 197.678 20.2324C197.993 20.5192 198.366 20.763 198.796 20.9638C199.255 21.1359 199.757 21.2793 200.302 21.394C200.847 21.4801 201.435 21.5231 202.066 21.5231C203.586 21.5231 204.862 21.2219 205.895 20.6196C206.928 19.9886 207.444 19.0851 207.444 17.9091L225.729 19.7591C225.413 21.8816 224.711 23.8751 223.621 25.7394C222.56 27.6038 221.068 29.253 219.146 30.6872C217.253 32.1213 214.887 33.2399 212.047 34.043C209.237 34.8748 205.909 35.2907 202.066 35.2907ZM25.834 35.7322H56.9402C59.4643 35.7322 61.5581 36.1911 63.2217 37.1089C64.8853 37.9981 66.133 39.1597 66.9648 40.5939C67.7966 41.9993 68.2124 43.4908 68.2124 45.0683C68.2124 46.7032 67.7535 48.2951 66.8357 49.844C65.9465 51.3641 64.5841 52.6118 62.7484 53.587C60.9414 54.5622 58.6755 55.0498 55.9507 55.0498C55.8359 55.0498 55.5491 55.0498 55.0902 55.0498C54.6313 55.0498 54.158 55.0498 53.6704 55.0498C53.2115 55.0498 52.9103 55.0498 52.7669 55.0498C52.7669 55.0498 52.7669 55.0642 52.7669 55.0929C52.7669 55.1216 52.7669 55.1359 52.7669 55.1359C52.7669 55.1359 52.7669 55.1502 52.7669 55.1789C52.7669 55.1789 52.7669 55.1933 52.7669 55.2219H62.5333L69.159 68H48.7227C48.1777 66.5372 47.6184 65.0744 47.0448 63.6116C46.4998 62.1488 45.9405 60.686 45.3668 59.2232C44.8219 57.7603 44.2626 56.2975 43.6889 54.8347H48.6797C49.2533 54.8347 49.7553 54.7487 50.1855 54.5766C50.6444 54.4045 51.0173 54.175 51.3041 53.8882C51.5909 53.6014 51.8061 53.2859 51.9495 52.9417C52.0929 52.5688 52.1646 52.1959 52.1646 51.8231C52.1646 51.3068 52.0355 50.8192 51.7774 50.3603C51.5192 49.9013 51.132 49.5285 50.6157 49.2416C50.0994 48.9548 49.4541 48.8114 48.6797 48.8114H43.775C43.775 48.8114 43.7606 48.8257 43.7319 48.8544C43.7319 48.8544 43.7176 48.8544 43.6889 48.8544C43.6889 48.8544 43.6889 48.8688 43.6889 48.8974C43.6889 50.7618 43.6889 52.1386 43.6889 53.0277C43.6889 53.8882 43.6889 54.4332 43.6889 54.6626C43.6889 54.8634 43.6889 54.9351 43.6889 54.8778C43.6889 54.8778 43.6889 55.0355 43.6889 55.351C43.6889 55.6378 43.6889 56.0394 43.6889 56.5557C43.6889 57.072 43.6889 57.66 43.6889 58.3197C43.6889 59.2662 43.6889 60.3131 43.6889 61.4604C43.6889 62.6077 43.6889 63.755 43.6889 64.9023C43.6889 66.0209 43.6889 67.0535 43.6889 68H25.834C25.834 66.1643 25.834 64.3286 25.834 62.493C25.834 60.6286 25.834 58.7786 25.834 56.9429C25.834 55.1072 25.834 53.2715 25.834 51.4359C25.834 49.5715 25.834 47.7215 25.834 45.8858C25.834 44.1935 25.834 42.5013 25.834 40.809C25.834 39.1167 25.834 37.4244 25.834 35.7322ZM69.7401 35.7322H87.595C87.595 38.8586 87.595 41.7842 87.595 44.509C87.595 47.2339 87.595 49.9587 87.595 52.6835C87.595 53.1138 87.681 53.4867 87.8531 53.8022C88.0539 54.1177 88.2977 54.3902 88.5845 54.6196C88.9 54.8204 89.2442 54.9781 89.6171 55.0929C90.0187 55.2076 90.4202 55.265 90.8218 55.265C91.6536 55.265 92.3993 55.0498 93.059 54.6196C93.7187 54.1894 94.0486 53.5584 94.0486 52.7266C94.0486 51.3498 94.0486 49.9874 94.0486 48.6393C94.0486 47.2912 94.0486 45.9288 94.0486 44.5521C94.0486 43.1753 94.0486 41.7555 94.0486 40.2927C94.0486 38.8299 94.0486 37.3097 94.0486 35.7322H111.903C111.903 37.9121 111.903 40.1493 111.903 42.4439C111.903 44.7385 111.903 47.0474 111.903 49.3707C111.903 51.6653 111.903 53.9025 111.903 56.0824C111.903 58.291 111.301 60.227 110.096 61.8906C108.92 63.5255 107.329 64.9023 105.321 66.0209C103.313 67.1108 101.047 67.9283 98.523 68.4733C96.0276 69.0182 93.4606 69.2907 90.8218 69.2907C88.7279 69.2907 86.6485 69.1186 84.5833 68.7744C82.5469 68.4302 80.6251 67.8996 78.8181 67.1825C77.0398 66.4655 75.4623 65.5907 74.0855 64.5581C72.7375 63.4968 71.6762 62.2635 70.9018 60.8581C70.1273 59.4239 69.7401 57.8321 69.7401 56.0824C69.7401 54.9925 69.7401 53.8739 69.7401 52.7266C69.7401 51.5506 69.7401 50.3889 69.7401 49.2416C69.7401 47.7215 69.7401 46.2013 69.7401 44.6811C69.7401 43.1609 69.7401 41.6551 69.7401 40.1636C69.7401 38.6435 69.7401 37.1663 69.7401 35.7322ZM113.604 35.7322H147.464C149.386 35.7322 150.978 36.1051 152.24 36.8508C153.502 37.5679 154.448 38.5 155.079 39.6473C155.739 40.7946 156.069 41.9993 156.069 43.2613C156.069 44.5234 155.739 45.7567 155.079 46.9614C154.419 48.1374 153.416 49.0982 152.067 49.844C150.748 50.5897 149.084 50.9626 147.077 50.9626C147.077 50.9626 147.062 50.9626 147.034 50.9626C147.034 50.9626 147.034 50.9769 147.034 51.0056C147.062 51.0056 147.077 51.0056 147.077 51.0056C149.4 51.0056 151.322 51.4215 152.842 52.2533C154.362 53.0851 155.495 54.1463 156.241 55.4371C156.986 56.7278 157.359 58.0902 157.359 59.5243C157.359 60.5856 157.144 61.6181 156.714 62.622C156.312 63.6259 155.696 64.5438 154.864 65.3756C154.032 66.1787 153 66.824 151.766 67.3116C150.533 67.7705 149.099 68 147.464 68H113.604C113.604 66.0496 113.604 64.1135 113.604 62.1918C113.604 60.2414 113.604 58.291 113.604 56.3406C113.604 54.3902 113.604 52.4541 113.604 50.5324C113.604 48.5819 113.604 46.6315 113.604 44.6811C113.604 43.1896 113.604 41.6981 113.604 40.2067C113.604 38.7152 113.604 37.2237 113.604 35.7322ZM130.556 52.6835C130.556 52.999 130.556 53.3146 130.556 53.6301C130.556 53.9456 130.556 54.2611 130.556 54.5766C130.556 54.806 130.556 55.0355 130.556 55.265C130.556 55.4657 130.556 55.6665 130.556 55.8673C130.556 56.0681 130.556 56.2689 130.556 56.4696C130.556 56.4983 130.556 56.5127 130.556 56.5127C130.556 56.5127 130.57 56.5127 130.599 56.5127H136.708C137.482 56.5127 138.056 56.3119 138.429 55.9103C138.83 55.5088 139.031 55.0498 139.031 54.5336C139.031 54.2754 138.988 54.046 138.902 53.8452C138.816 53.6157 138.687 53.4149 138.515 53.2428C138.372 53.0421 138.171 52.8987 137.913 52.8126C137.683 52.6979 137.411 52.6405 137.095 52.6405H130.599C130.599 52.6405 130.584 52.6549 130.556 52.6835ZM130.599 46.6172C130.57 46.6172 130.556 46.6315 130.556 46.6602C130.556 46.8323 130.556 47.0331 130.556 47.2625C130.556 47.4633 130.556 47.6784 130.556 47.9079C130.556 48.1087 130.556 48.3238 130.556 48.5533C130.556 48.8688 130.556 49.1986 130.556 49.5428C130.556 49.8583 130.556 50.1595 130.556 50.4463C130.556 50.475 130.556 50.4893 130.556 50.4893C130.556 50.4893 130.57 50.4893 130.599 50.4893H136.493C137.009 50.4893 137.439 50.4033 137.784 50.2312C138.128 50.0304 138.386 49.7866 138.558 49.4998C138.73 49.1843 138.816 48.8544 138.816 48.5102C138.816 48.0226 138.644 47.5924 138.3 47.2195C137.984 46.818 137.511 46.6172 136.88 46.6172H130.599ZM182.585 35.7322H202.118C200.541 38.6004 198.963 41.4687 197.386 44.3369C195.808 47.2052 194.216 50.0734 192.61 52.9417C191.032 55.8099 189.455 58.6782 187.877 61.5464V68H170.022V61.5034C169.019 59.7825 168.015 58.0615 167.011 56.3406C166.036 54.6196 165.046 52.8987 164.042 51.1777C163.067 49.4568 162.077 47.7501 161.074 46.0579C160.07 44.3369 159.066 42.616 158.062 40.895C157.087 39.1741 156.097 37.4531 155.093 35.7322H175.745C176.117 37.1089 176.476 38.4857 176.82 39.8625C177.193 41.2392 177.566 42.616 177.939 43.9927C178.312 45.3695 178.67 46.7463 179.014 48.123C179.014 48.123 179.014 48.1374 179.014 48.166C179.043 48.166 179.057 48.166 179.057 48.166C179.086 48.1374 179.1 48.123 179.1 48.123C179.387 47.0905 179.674 46.0579 179.961 45.0253C180.248 43.9927 180.535 42.9602 180.821 41.9276C181.137 40.895 181.438 39.8625 181.725 38.8299C182.012 37.7973 182.299 36.7647 182.585 35.7322Z" fill="#4738FF"></path><g clip-path="url(#clip0_263_565)"><path d="M128.694 100.58C125.019 100.58 123.094 98.9415 121.818 97.8575C120.961 97.1284 120.782 96.9759 119.944 96.9759C118.978 96.9759 118.635 97.2338 117.616 98.0017C116.168 99.0912 114.19 100.58 110.645 100.58C107.101 100.58 105.09 98.9249 103.83 97.8298C102.979 97.0896 102.849 96.9759 102.081 96.9759C101.181 96.9759 100.852 97.2282 99.8713 97.9795C98.4403 99.0774 96.4843 100.58 92.962 100.58C88.8678 100.58 86.7682 97.9241 85.514 96.3383C84.4835 95.0353 84.3619 95.0353 84.1244 95.0353C83.0663 95.0353 82.0414 94.5917 81.3148 93.821C80.5772 93.0392 80.2042 92.0135 80.2622 90.935C80.3755 88.8835 82.1132 87.2756 84.2183 87.2756H84.3012C87.3898 87.3421 89.0805 89.0554 90.4369 90.4332C90.8044 90.8075 91.1552 91.1596 91.4867 91.4285L91.5365 91.4701C91.5779 91.5034 91.6055 91.5034 91.6138 91.5034C91.658 91.5034 91.7105 91.4701 91.7354 91.4257C91.7547 91.3925 91.7602 91.362 91.7271 91.3065L84.6797 78.9586C83.931 77.5918 84.1741 75.8786 85.2653 74.7835L95.5505 64.4594C96.2108 63.7968 97.0866 63.4336 98.0203 63.4336H123.818C124.751 63.4336 125.627 63.7995 126.287 64.4594L136.57 74.7779C137.664 75.8758 137.907 77.5919 137.156 78.9531L130.23 91.6115C130.487 91.3703 130.755 91.0681 131.081 90.6661L131.285 90.4138C132.498 88.9112 133.749 87.356 137.529 87.2756H137.614C139.683 87.2756 141.421 88.8503 141.567 90.8602C141.648 91.9525 141.286 92.9949 140.545 93.7961C139.816 94.5834 138.783 95.0381 137.711 95.0381C137.412 95.0381 137.291 95.0381 136.194 96.3854C134.915 97.9546 132.777 100.583 128.685 100.583L128.694 100.58Z" fill="#4738FF"></path><path d="M123.822 63.9841C124.601 63.9841 125.349 64.2946 125.899 64.8491L136.181 75.1677C137.107 76.0964 137.309 77.5297 136.676 78.683C136.676 78.683 131.955 87.3132 129.75 91.3442C129.521 91.7628 129.863 92.1731 130.242 92.1731C130.374 92.1731 130.51 92.1232 130.629 92.0067C130.888 91.7517 131.17 91.4356 131.513 91.0143C132.789 89.4479 133.819 87.9065 137.546 87.8289C137.571 87.8289 137.596 87.8289 137.621 87.8289C139.364 87.8289 140.895 89.1485 141.024 90.9006C141.168 92.8523 139.632 94.4797 137.718 94.4797C137.162 94.4797 136.919 94.6238 135.773 96.0294C134.477 97.6207 132.521 100.024 128.692 100.024C125.219 100.024 123.388 98.4663 122.175 97.4322C121.285 96.6753 120.984 96.4203 119.946 96.4203C118.794 96.4203 118.321 96.7779 117.285 97.5569C115.901 98.5993 114.006 100.024 110.647 100.024C107.287 100.024 105.389 98.4496 104.193 97.41C103.32 96.6504 103.055 96.4203 102.083 96.4203C100.994 96.4203 100.538 96.7696 99.5381 97.5375C98.1706 98.5882 96.2976 100.024 92.9659 100.024C89.1369 100.024 87.2196 97.5985 85.9488 95.9933C84.8631 94.6183 84.6338 94.4797 84.1255 94.4797C82.2331 94.4797 80.7081 92.8856 80.8159 90.9644C80.9126 89.1845 82.4514 87.8289 84.2194 87.8289C84.2443 87.8289 84.2692 87.8289 84.2913 87.8289C87.9987 87.9065 89.5761 90.5901 91.1426 91.857L91.1923 91.8986C91.3276 92.0095 91.4741 92.0566 91.6177 92.0566C92.0901 92.0566 92.499 91.5327 92.2117 91.0281L85.1642 78.6802C84.5344 77.5297 84.736 76.1019 85.6615 75.1732L95.9467 64.8518C96.4993 64.2974 97.2452 63.9869 98.0242 63.9869H123.822M123.822 62.8752H98.0242C96.944 62.8752 95.9274 63.2966 95.1649 64.0645L84.8797 74.3859C83.6144 75.6556 83.3326 77.6378 84.1946 79.2097C84.1973 79.2152 84.2001 79.2208 84.2029 79.2263L89.7971 89.0293C88.5402 87.8898 86.8577 86.7698 84.3134 86.7144C84.2802 86.7144 84.2498 86.7144 84.2167 86.7144C81.8187 86.7144 79.8379 88.5524 79.7108 90.8978C79.6418 92.1315 80.07 93.3014 80.9126 94.1969C81.7441 95.0785 82.9155 95.5858 84.1227 95.5858C84.1227 95.5858 84.1283 95.5858 84.131 95.5858C84.2802 95.7022 84.5979 96.071 85.0814 96.6809C86.3964 98.3443 88.6009 101.13 92.9631 101.13C96.6705 101.13 98.7978 99.4976 100.207 98.4164C101.182 97.6678 101.389 97.5264 102.08 97.5264C102.454 97.5264 102.916 97.7658 103.467 98.2445C104.707 99.3229 106.784 101.13 110.644 101.13C114.503 101.13 116.523 99.5114 117.945 98.4413C118.968 97.6706 119.186 97.5264 119.943 97.5264C120.578 97.5264 120.628 97.568 121.46 98.275C122.714 99.3423 124.816 101.13 128.692 101.13C133.046 101.13 135.289 98.3748 136.629 96.728C137.165 96.0682 137.513 95.6856 137.662 95.5858C137.676 95.5858 137.693 95.5858 137.718 95.5858C138.941 95.5858 140.124 95.0702 140.958 94.1692C141.803 93.2543 142.218 92.065 142.127 90.8146C141.958 88.5164 139.977 86.7144 137.621 86.7144C137.588 86.7144 137.555 86.7144 137.524 86.7144C135.264 86.7615 133.833 87.3271 132.795 88.0811L137.648 79.2097C138.516 77.6378 138.234 75.65 136.966 74.3775L126.684 64.059C125.918 63.291 124.904 62.8696 123.824 62.8696L123.822 62.8752Z" fill="#2A1E82"></path><path d="M120.794 91.9824H122.176C124.006 91.9824 125.491 90.493 125.491 88.6556V76.4574C125.491 74.6201 124.006 73.1306 122.176 73.1306H120.794C118.963 73.1306 117.479 74.6201 117.479 76.4574V88.6556C117.479 90.493 118.963 91.9824 120.794 91.9824Z" fill="#E8E8E8" stroke="#2A1E82" stroke-width="1.08655" stroke-linecap="round" stroke-linejoin="round"></path><path d="M107.257 91.9824H108.638C110.469 91.9824 111.953 90.493 111.953 88.6556V76.4574C111.953 74.6201 110.469 73.1306 108.638 73.1306H107.257C105.426 73.1306 103.942 74.6201 103.942 76.4574V88.6556C103.942 90.493 105.426 91.9824 107.257 91.9824Z" fill="#E8E8E8" stroke="#2A1E82" stroke-width="1.08655" stroke-linecap="round" stroke-linejoin="round"></path><path d="M108.474 73.1304H107.151C106.971 73.1304 106.794 73.1498 106.623 73.1775V73.8013C106.651 73.8013 106.676 73.793 106.703 73.793C107.361 73.793 107.894 74.328 107.894 74.9878C107.894 75.6476 107.361 76.1827 106.703 76.1827C106.676 76.1827 106.651 76.1772 106.623 76.1744V82.4204C106.623 84.1725 108.052 85.6058 109.798 85.6058H111.121C111.301 85.6058 111.478 85.5864 111.649 85.5587V76.3158C111.649 74.5637 110.221 73.1304 108.474 73.1304Z" fill="#2A1E82"></path><path d="M122.014 73.1304H120.69C120.511 73.1304 120.334 73.1498 120.163 73.1775V73.8013C120.19 73.8013 120.215 73.793 120.243 73.793C120.9 73.793 121.434 74.328 121.434 74.9878C121.434 75.6476 120.9 76.1827 120.243 76.1827C120.215 76.1827 120.19 76.1772 120.163 76.1744V82.4204C120.163 84.1725 121.591 85.6058 123.337 85.6058H124.661C124.84 85.6058 125.017 85.5864 125.189 85.5587V76.3158C125.189 74.5637 123.76 73.1304 122.014 73.1304Z" fill="#2A1E82"></path></g><defs><clipPath id="clip0_263_565"><rect width="64.1697" height="40" fill="white" transform="translate(78.8374 62)"></rect></clipPath></defs></svg> 