<svg width="920" height="216" viewBox="0 0 920 216" fill="none" xmlns="http://www.w3.org/2000/svg">
<path d="M65.736 62H48.672L35.352 46.088H20.52V62H5.904V11.6H41.256C54.144 11.6 64.152 17.288 64.152 28.808C64.152 37.232 58.824 42.56 50.904 44.864L65.736 62ZM20.448 35.432H40.176C45.432 35.432 49.248 33.992 49.248 29.096C49.248 24.2 45.432 22.76 40.176 22.76H20.448V35.432ZM114.799 11.6H129.487V38.24C129.487 53.576 119.047 63.656 100.255 63.656C81.4629 63.656 70.9509 53.576 70.9509 38.24V11.6H85.6389V37.088C85.6389 45.872 90.5349 51.56 100.255 51.56C109.975 51.56 114.799 45.872 114.799 37.088V11.6ZM183.424 35.72C191.344 36.224 197.824 40.4 197.824 48.176C197.824 56.888 189.976 62 177.592 62H138.64V11.6H174.712C187.096 11.6 194.944 16.568 194.944 24.632C194.944 30.32 190.984 35.288 183.424 35.72ZM153.184 21.824V31.688H172.264C177.16 31.688 180.4 30.608 180.4 26.72C180.4 22.904 177.16 21.824 172.264 21.824H153.184ZM174.496 51.776C179.68 51.776 182.776 50.552 182.776 46.448C182.776 42.344 179.68 41.192 174.496 41.192H153.184V51.776H174.496ZM195.195 11.6H211.611L226.299 33.344L240.915 11.6H257.259L233.571 45.008V62H218.883V45.008L195.195 11.6Z" fill="#E73631"/>
<path d="M35.208 123.704C41.976 123.704 47.16 121.4 50.688 116L63.288 122.48C58.608 129.896 48.456 135.656 34.848 135.656C15.84 135.656 3.024 125.792 3.024 108.8C3.024 91.808 15.84 81.944 35.424 81.944C48.456 81.944 58.536 87.848 63.072 95.048L50.4 101.528C47.088 96.344 41.976 93.896 35.208 93.896C24.84 93.896 17.928 99.152 17.928 108.8C17.928 118.448 24.84 123.704 35.208 123.704ZM98.2513 135.656C78.3073 135.656 65.4193 125.864 65.4193 108.8C65.4193 91.736 78.3073 81.944 98.2513 81.944C118.195 81.944 131.155 91.736 131.155 108.8C131.155 125.864 118.195 135.656 98.2513 135.656ZM98.2513 123.704C109.339 123.704 116.179 118.304 116.179 108.8C116.179 99.296 109.339 93.896 98.2513 93.896C87.2353 93.896 80.3233 99.296 80.3233 108.8C80.3233 118.304 87.1633 123.704 98.2513 123.704ZM192.36 83.6H207.984V134H193.368V101.816L173.28 126.44H172.56L152.472 101.816V134H138.288V83.6H154.344L173.28 107.792L192.36 83.6ZM272.053 83.6H287.677V134H273.061V101.816L252.973 126.44H252.253L232.165 101.816V134H217.981V83.6H234.037L252.973 107.792L272.053 83.6ZM340.657 83.6H355.345V110.24C355.345 125.576 344.905 135.656 326.113 135.656C307.321 135.656 296.809 125.576 296.809 110.24V83.6H311.497V109.088C311.497 117.872 316.393 123.56 326.113 123.56C335.833 123.56 340.657 117.872 340.657 109.088V83.6ZM409.93 83.6H424.114V134H411.226L378.682 100.88V134H364.498V83.6H380.05L409.93 114.416V83.6ZM448.823 134H434.135V83.6H448.823V134ZM510.609 83.6V95.336H489.657V134H474.969V95.336H454.161V83.6H510.609ZM509.632 83.6H526.048L540.736 105.344L555.352 83.6H571.696L548.008 117.008V134H533.32V117.008L509.632 83.6ZM35.208 195.704C41.976 195.704 47.16 193.4 50.688 188L63.288 194.48C58.608 201.896 48.456 207.656 34.848 207.656C15.84 207.656 3.024 197.792 3.024 180.8C3.024 163.808 15.84 153.944 35.424 153.944C48.456 153.944 58.536 159.848 63.072 167.048L50.4 173.528C47.088 168.344 41.976 165.896 35.208 165.896C24.84 165.896 17.928 171.152 17.928 180.8C17.928 190.448 24.84 195.704 35.208 195.704ZM98.2513 207.656C78.3073 207.656 65.4193 197.864 65.4193 180.8C65.4193 163.736 78.3073 153.944 98.2513 153.944C118.195 153.944 131.155 163.736 131.155 180.8C131.155 197.864 118.195 207.656 98.2513 207.656ZM98.2513 195.704C109.339 195.704 116.179 190.304 116.179 180.8C116.179 171.296 109.339 165.896 98.2513 165.896C87.2353 165.896 80.3233 171.296 80.3233 180.8C80.3233 190.304 87.1633 195.704 98.2513 195.704ZM183.72 155.6H197.904V206H185.016L152.472 172.88V206H138.288V155.6H153.84L183.72 186.416V155.6ZM260.702 167.192H222.614V176.768H254.438V188.216H222.614V206H207.926V155.6H260.702V167.192ZM280.996 194.768H320.308V206H266.524V155.6H319.516V166.832H280.996V175.112H312.748V185.84H280.996V194.768ZM387.205 206H370.141L356.821 190.088H341.989V206H327.373V155.6H362.725C375.613 155.6 385.621 161.288 385.621 172.808C385.621 181.232 380.293 186.56 372.373 188.864L387.205 206ZM341.917 179.432H361.645C366.901 179.432 370.717 177.992 370.717 173.096C370.717 168.2 366.901 166.76 361.645 166.76H341.917V179.432ZM407.756 194.768H447.068V206H393.284V155.6H446.276V166.832H407.756V175.112H439.508V185.84H407.756V194.768ZM499.564 155.6H513.748V206H500.86L468.316 172.88V206H454.132V155.6H469.684L499.564 186.416V155.6ZM553.074 195.704C559.842 195.704 565.026 193.4 568.554 188L581.154 194.48C576.474 201.896 566.322 207.656 552.714 207.656C533.706 207.656 520.89 197.792 520.89 180.8C520.89 163.808 533.706 153.944 553.29 153.944C566.322 153.944 576.402 159.848 580.938 167.048L568.266 173.528C564.954 168.344 559.842 165.896 553.074 165.896C542.706 165.896 535.794 171.152 535.794 180.8C535.794 190.448 542.706 195.704 553.074 195.704ZM601.129 194.768H640.441V206H586.657V155.6H639.649V166.832H601.129V175.112H632.881V185.84H601.129V194.768Z" fill="#0A0A0A"/>
<g clip-path="url(#clip0_3623_2647)">
<path d="M908.882 37.6357C905.022 46.2613 897.702 46.131 897.702 46.131C897.702 46.131 899.609 42.1505 897.433 39.5706C890.749 48.32 881.594 46.8411 881.594 46.8411C886.745 52.066 894.51 52.6914 898.698 51.3493C903.364 49.8575 909.891 45.4144 908.875 37.6357H908.882Z" fill="#0A0A0A"/>
<path d="M796.547 165.384C796.003 166.785 794.81 168.342 793.427 169.202C788.919 172.029 783.801 168.485 783.414 163.651C782.89 156.999 786.841 146.263 783.742 141.377C781.192 137.357 776.494 136.693 773.754 136.68C774.528 134.002 776.094 131.735 778.152 130.087L759.992 134.869L774.731 146.439C773.558 144.217 773.027 141.657 773.295 139.025C776.317 139.585 781.33 141.475 779.895 147.768C778.951 151.898 777.935 154.296 776.435 159.508C776.428 159.527 776.421 159.553 776.415 159.573C775.052 163.807 775.288 168.511 777.863 172.57C782.49 179.866 792.412 182.133 799.745 177.534C804.011 174.863 806.292 170.172 807.72 165.534C808.834 161.905 810.158 158.276 812.006 154.947L803.821 143.983C800.636 151.957 798.736 159.736 796.534 165.39L796.547 165.384Z" fill="#0A0A0A"/>
<path d="M817.659 83.421H898.39C899.445 75.3427 895.814 66.8539 888.717 62.1112V62.1307C884.444 59.2707 879.437 57.8179 874.398 56.958C870.499 56.2935 866.37 56.2088 862.569 55.0557C859.384 54.098 858.408 51.5638 858.801 49.6354C859.273 47.2966 862.084 45.4203 864.437 46.2086C866.704 46.9643 872.098 48.6191 874.837 49.453C875.84 49.7592 876.927 49.4139 877.57 48.58L879.306 46.3063L876.999 46.6712C876.999 46.6712 872.707 43.8698 871.043 42.6711L878.756 41.9089L880.027 44.5669L881.141 39.8632C881.364 38.899 880.741 37.9348 879.758 37.7329L875.99 36.9707C873.153 36.0847 871.167 33.3875 868.093 31.3224C863.624 28.3321 859.568 27.4851 859.568 27.4851C861.481 30.508 861.743 33.1595 861.743 33.1595C861.743 33.1595 856.913 33.5113 852.562 37.0293C848.257 39.7655 842.581 39.7069 838.302 36.6384C838.322 36.697 840.596 43.0359 847.654 43.505C847.608 43.6027 847.568 43.6939 847.529 43.7916C845.131 46.6712 841.133 47.8764 837.463 46.6516C837.463 46.6516 839.298 50.6061 843.027 51.3292C844.174 51.5507 845.144 51.3423 845.943 50.9579C845.838 53.8635 846.376 56.8668 847.922 59.4271C852.228 66.5477 859.063 67.6357 867.084 69.8116C868.323 70.0071 869.489 70.7237 870.217 71.8703C871.639 74.1049 870.721 77.2255 868.349 78.3981C866.062 79.5317 862.49 78.8151 860.092 78.359C854.004 77.2059 848.355 74.2026 843.728 70.1439C843.715 70.1309 843.695 70.1178 843.682 70.0983C842.719 69.2123 827.463 54.6778 829.887 26.7359C829.887 26.7359 794.925 3.26321 761.398 33.2312C761.398 33.2312 778.627 33.9608 795.666 41.7721C790.921 43.3095 786.288 45.4464 781.884 48.2021C780.292 49.1989 778.45 50.8797 776.989 51.9937C786.524 52.0133 796.236 55.8374 801.695 64.4435C805.463 70.3849 806.748 77.1733 805.85 83.6295L817.646 83.4145L817.659 83.421Z" fill="#0A0A0A"/>
<path d="M884.68 111.807L902.335 89.1939L919.99 111.807H884.68ZM880.558 117.872H919.996L858.755 196.316L880.565 117.872H880.558ZM825.012 117.872L847.156 196.199L786.007 117.872H825.012ZM826.591 109.989L809.376 87.9365H846.618L826.591 109.989ZM859.122 87.9365H896.627L878.769 110.81L859.122 87.9365ZM832.201 111.807L852.962 88.9463L872.589 111.807H832.201ZM875.538 117.872L852.988 199L830.052 117.872H875.538ZM803.661 89.1874L821.316 111.807H786L803.655 89.1874H803.661Z" fill="#931C04"/>
</g>
<defs>
<clipPath id="clip0_3623_2647">
<rect width="160" height="181" fill="white" transform="translate(760 18)"/>
</clipPath>
</defs>
</svg>
