<svg width="397" height="48" viewBox="0 0 397 48" fill="none" xmlns="http://www.w3.org/2000/svg">
<path d="M50.3792 37.8905V46H9.44262V2.45286H50.3792V10.5624H17.941V20.3383H39.8256V28.1146H17.941V37.8905H50.3792ZM77.4095 2.39731H86.6855L100.794 30.2253L114.791 2.39731H124.067L100.794 47.4997L77.4095 2.39731ZM193.147 37.8905V46H152.21V2.45286H193.147V10.5624H160.709V20.3383H182.593V28.1146H160.709V37.8905H193.147ZM258.059 46L244.006 30.5585H233.286V46H224.787V2.45286H253.115C257.059 2.45286 260.392 3.84148 263.169 6.61872C265.946 9.34042 267.335 12.6731 267.335 16.5057C267.335 20.1161 266.113 23.2266 263.724 25.8372C261.336 28.4478 258.281 29.892 254.559 30.2253L268.834 46H258.059ZM233.286 22.5601H252.449C256.226 22.5601 258.836 19.8939 258.836 16.3946C258.836 12.8953 256.226 10.2847 252.449 10.2847H233.286V22.5601Z" fill="black"/>
<path d="M316.417 38.2793L312.363 46H302.92L325.86 0.564334L349.633 46H340.135L335.914 38.2793H316.417ZM326.027 17.2833L319.361 31.3362H332.803L326.027 17.2833ZM386.273 2.45286V46H377.775V2.45286H386.273Z" fill="url(#paint0_linear_695_216)"/>
<defs>
<linearGradient id="paint0_linear_695_216" x1="298.088" y1="2" x2="399.082" y2="37.4745" gradientUnits="userSpaceOnUse">
<stop stop-color="#92A2E9"/>
<stop offset="1" stop-color="#4B65E0"/>
</linearGradient>
</defs>
</svg>
