<svg width="217" height="24" viewBox="0 0 217 24" fill="none" xmlns="http://www.w3.org/2000/svg">
<g clip-path="url(#clip0_2595_530)">
<path d="M85.4007 3.7028C83.3376 3.82325 82.6693 4.40217 82.6693 6.13117V21.0899C82.6693 22.4265 83.3958 22.881 85.4007 23.1219V23.5454H76.6625V23.1219C78.6635 22.9082 79.3628 22.3954 79.3628 21.0899V7.04035L71.3822 23.5454H70.5935L62.7645 6.7062V21.086C62.7645 22.3915 63.491 22.8772 65.4959 23.1181V23.5416H59.186V23.1181C61.187 22.9044 61.9175 22.3915 61.9175 21.086V6.13117C61.9175 4.40217 61.2492 3.82714 59.186 3.7028V3.2793H64.8004L72.3536 19.5746L80.2409 3.2793H85.4007V3.7028Z" fill="#2B2E34"/>
<path d="M86.4536 16.2332C86.4536 11.256 89.5192 7.8291 93.9485 7.8291C98.3779 7.8291 101.171 10.984 101.171 15.596C101.171 20.5732 98.1059 23.969 93.6765 23.969C89.2472 23.969 86.4575 20.814 86.4575 16.2332H86.4536ZM97.9543 16.9015C97.9543 13.1404 96.5595 8.68 93.4318 8.68C91.0966 8.68 89.6979 11.2288 89.6979 14.8694C89.6979 18.6926 91.0617 23.122 94.2205 23.122C96.5556 23.122 97.9505 20.5732 97.9505 16.9015H97.9543Z" fill="#2B2E34"/>
<path d="M128.54 23.1218V23.5453H121.714V23.1218C122.805 22.8809 123.594 22.5739 123.594 21.2723V12.775C123.594 10.9838 122.592 9.89205 120.983 9.89205C119.557 9.89205 118.403 10.5293 116.977 12.0756C117.008 12.2272 117.008 12.4098 117.008 12.5924V21.2684C117.008 22.5739 117.766 22.877 118.889 23.1179V23.5414H112.031V23.1179C113.154 22.877 113.912 22.5701 113.912 21.2684V12.7711C113.912 10.98 112.94 9.88817 111.301 9.88817C109.995 9.88817 108.903 10.436 107.629 11.7687V21.2646C107.629 22.57 108.387 22.8731 109.51 23.114V23.5375H102.652V23.114C103.775 22.8731 104.532 22.5662 104.532 21.2646V11.2519C104.532 10.2223 104.016 9.73664 102.924 9.6123H102.287V9.1888L107.202 7.79395H107.625V10.9178C109.14 9.06835 110.691 7.82114 112.692 7.82114C115.089 7.82114 116.546 9.12663 116.907 11.3996C118.547 9.27428 120.155 7.82114 122.37 7.82114C125.133 7.82114 126.648 9.6123 126.648 12.5846V21.2607C126.648 22.5662 127.437 22.8692 128.528 23.1101L128.54 23.1218Z" fill="#2B2E34"/>
<path d="M142.986 19.1472C142.318 21.8165 140.072 23.9729 136.707 23.9729C132.185 23.9729 129.578 20.4838 129.578 16.2371C129.578 11.2327 132.519 7.83301 136.952 7.83301C140.896 7.83301 142.959 10.5644 142.959 14.5081H132.674C132.643 14.6596 132.643 14.7801 132.643 14.9316C132.492 19.0579 134.827 21.5173 138.258 21.5173C140.352 21.5173 141.778 20.3634 142.629 18.9996L142.994 19.1511L142.986 19.1472ZM132.733 13.6572H139.742C139.68 11.2599 138.557 8.68002 136.494 8.68002C134.43 8.68002 133.094 10.8325 132.733 13.6572Z" fill="#2B2E34"/>
<path d="M161.084 23.122V23.5455H154.226V23.122C155.349 22.8811 156.107 22.5741 156.107 21.2725V12.7752C156.107 10.984 155.136 9.89224 153.496 9.89224C152.07 9.89224 150.947 10.4984 149.552 12.0447V21.2686C149.552 22.5741 150.31 22.8772 151.433 23.1181V23.5416H144.575V23.1181C145.698 22.8772 146.456 22.5702 146.456 21.2686V11.256C146.456 10.2536 145.939 9.74071 144.847 9.64746L144.21 9.61638V9.19287L149.125 7.8291H149.548V11.2871C151.157 9.22395 152.734 7.8291 154.887 7.8291C157.677 7.8291 159.196 9.62026 159.196 12.5926V21.2686C159.196 22.5741 159.954 22.8772 161.076 23.1181L161.084 23.122Z" fill="#2B2E34"/>
<path d="M170.782 21.8166C170.296 22.6947 169.173 24.0002 166.959 24.0002C164.624 24.0002 163.136 22.4538 163.136 19.7846V9.13473H161.469V8.71123L165.809 4.67432H166.232V8.28384H170.693V9.13473H166.232V19.6641C166.232 21.3037 167.052 22.4266 168.598 22.4266C169.601 22.4266 170.118 22.0031 170.541 21.6379L170.782 21.8205V21.8166Z" fill="#2B2E34"/>
<path d="M189.21 22.1815V22.605L184.326 23.9999H183.903V20.5419C182.294 22.605 180.717 23.9999 178.564 23.9999C175.775 23.9999 174.255 22.2087 174.255 19.2364V11.2558C174.255 10.2262 173.739 9.74054 172.647 9.61621H171.979V9.1927L176.894 7.79785H177.317V19.0538C177.317 20.845 178.319 21.9368 179.928 21.9368C181.354 21.9368 182.508 21.3306 183.903 19.7804V11.2558C183.903 10.2262 183.386 9.74054 182.263 9.61621H181.626V9.1927L186.541 7.79785H186.964V20.5419C186.964 21.6337 187.539 22.0572 188.573 22.1504L189.21 22.1815Z" fill="#2B2E34"/>
<path d="M216.641 23.1218V23.5453H209.815V23.1218C210.906 22.8809 211.695 22.5739 211.695 21.2723V12.775C211.695 10.9838 210.693 9.89205 209.084 9.89205C207.658 9.89205 206.504 10.5293 205.078 12.0756C205.109 12.2272 205.109 12.4098 205.109 12.5924V21.2684C205.109 22.5739 205.867 22.877 206.99 23.1179V23.5414H200.132V23.1179C201.255 22.877 202.013 22.5701 202.013 21.2684V12.7711C202.013 10.98 201.041 9.88817 199.402 9.88817C198.096 9.88817 197.004 10.436 195.73 11.7687V21.2646C195.73 22.57 196.488 22.8731 197.611 23.114V23.5375H190.753V23.114C191.876 22.8731 192.633 22.5662 192.633 21.2646V11.2519C192.633 10.2223 192.117 9.73664 191.025 9.6123H190.388V9.1888L195.303 7.79395H195.726V10.9178C197.242 9.06835 198.792 7.82114 200.793 7.82114C203.19 7.82114 204.647 9.12663 205.008 11.3996C206.648 9.27428 208.257 7.82114 210.471 7.82114C213.234 7.82114 214.749 9.6123 214.749 12.5846V21.2607C214.749 22.5662 215.538 22.8692 216.63 23.1101L216.641 23.1218Z" fill="#2B2E34"/>
<path d="M42.5877 3.27148H33.3677V23.5998H42.5877V3.27148Z" fill="#636F59"/>
<path d="M18.9961 -9.32766e-08L12.4766 6.51953L26.8509 20.8938L33.3704 14.3743L18.9961 -9.32766e-08Z" fill="#4864FE"/>
<path d="M0 14.3757L0 23.5957H20.3283V14.3757L0 14.3757Z" fill="#AFF476"/>
</g>
<defs>
<clipPath id="clip0_2595_530">
<rect width="216.641" height="24" fill="white"/>
</clipPath>
</defs>
</svg>
