<svg xmlns="http://www.w3.org/2000/svg" viewBox="0 0 100 24" aria-hidden="true">
  <path
    d="M 92.762 13.196 L 97.385 13.196 C 97.346 12.094 96.611 11.107 95.064 11.107 C 93.652 11.107 92.839 12.191 92.762 13.197 Z M 97.636 15.653 L 99.532 16.253 C 99.029 17.897 97.54 19.232 95.277 19.232 C 92.723 19.232 90.46 17.375 90.46 14.182 C 90.46 11.204 92.665 9.231 95.044 9.231 C 97.946 9.231 99.648 11.146 99.648 14.125 C 99.648 14.492 99.61 14.802 99.59 14.841 L 92.704 14.841 C 92.762 16.272 93.884 17.297 95.277 17.297 C 96.631 17.297 97.327 16.582 97.637 15.653 Z M 82.602 13.506 L 82.602 18.941 L 80.358 18.941 L 80.358 9.521 L 82.544 9.521 L 82.544 10.778 C 83.164 9.695 84.285 9.25 85.33 9.25 C 87.632 9.25 88.734 10.914 88.734 12.983 L 88.734 18.941 L 86.49 18.941 L 86.49 13.371 C 86.49 12.21 85.968 11.281 84.556 11.281 C 83.279 11.281 82.602 12.268 82.602 13.506 Z M 70.558 14.183 C 70.558 15.982 71.545 17.258 73.112 17.258 C 74.582 17.258 75.607 16.001 75.607 14.183 C 75.607 12.364 74.601 11.203 73.112 11.203 C 71.602 11.203 70.558 12.364 70.558 14.183 Z M 75.626 17.587 C 75.201 18.497 74.214 19.193 72.86 19.193 C 70.094 19.193 68.314 17.007 68.314 14.183 C 68.314 11.455 70.114 9.25 72.822 9.25 C 74.485 9.25 75.336 10.12 75.588 10.759 L 75.588 9.52 L 77.774 9.52 L 77.774 17.219 C 77.774 17.992 77.851 18.747 77.87 18.94 L 75.723 18.94 C 75.654 18.492 75.622 18.039 75.626 17.586 Z M 66.427 18.941 L 64.183 18.941 L 64.183 4.937 L 66.426 4.937 L 66.426 18.94 Z M 55.482 11.533 L 57.9 11.533 C 59.37 11.533 60.26 10.72 60.26 9.424 C 60.26 8.109 59.37 7.277 57.9 7.277 L 55.482 7.277 Z M 58.249 13.583 L 55.482 13.583 L 55.482 18.941 L 53.162 18.941 L 53.162 5.227 L 58.249 5.227 C 60.879 5.227 62.62 7.007 62.62 9.405 C 62.62 11.823 60.88 13.583 58.249 13.583 Z"
    fill="rgb(69,77,84)"
  />
  <path
    d="M 33.501 4.899 C 33.501 4.899 33.501 4.9 33.501 4.9 L 33.501 4.9 Z M 46.254 1.482 C 46.769 1.344 47.081 1.678 46.946 2.229 L 44.868 10.694 C 44.69 11.42 44.21 12.019 43.567 12.318 L 32.106 17.654 C 33.714 15.62 34.681 13.006 34.681 10.155 L 34.679 9.968 L 42.711 7.174 L 43.156 5.495 L 34.504 8.067 C 34.317 6.97 33.98 5.904 33.501 4.9 Z M 12.435 8.055 L 3.822 5.495 L 4.266 7.175 L 12.435 10.015 L 12.435 16.52 L 3.41 12.318 C 2.767 12.019 2.288 11.42 2.11 10.694 L 0.032 2.229 C -0.104 1.678 0.208 1.344 0.724 1.482 L 12.435 4.62 Z M 18.504 1.45 C 19.994 0.503 21.723 0 23.489 0 C 28.83 0 33.16 4.547 33.161 10.155 C 33.161 15.764 28.83 20.311 23.489 20.311 C 21.783 20.311 20.109 19.841 18.653 18.952 L 18.653 23.938 L 13.817 23.938 L 13.817 1.45 Z M 23.489 15.233 C 26.159 15.233 28.325 12.96 28.325 10.155 C 28.325 7.351 26.16 5.078 23.489 5.078 C 20.818 5.078 18.653 7.351 18.653 10.155 C 18.653 12.96 20.818 15.233 23.489 15.233 Z"
    fill="rgb(69,77,84)"
  />
</svg>
