<svg width="133" height="53" viewBox="0 0 133 53" fill="none" xmlns="http://www.w3.org/2000/svg">
<circle cx="26.0764" cy="26.0764" r="26.0764" fill="url(#paint0_linear_504_2625)"/>
<path d="M129.38 24.244C129.308 24.4535 129.206 24.6512 129.075 24.8303C128.377 25.7962 127.138 26.1661 126.004 26.2643C124.358 26.4095 123.788 26.6149 123.771 27.1853C123.757 27.6928 124.408 28.1506 125.568 28.1506H128.884V29.9552H125.659C123.766 29.9414 121.887 28.9077 121.887 27.1826V24.0434C121.887 22.9759 121.814 22.2651 122.713 21.4609C123.437 20.8131 124.546 20.4514 125.66 20.4445C127.027 20.4348 128.398 20.8732 129.079 21.7534C129.259 21.9885 129.367 22.2236 129.431 22.4621C129.57 22.9786 129.549 23.7537 129.383 24.244H129.38ZM91.5961 29.9552H87.5941V28.1506H92.4798C92.6969 28.1506 92.8967 28.069 93.0502 27.9348C93.4533 27.5822 93.4201 27.0864 93.1553 26.7594C93.0481 26.6266 92.8829 26.5312 92.6976 26.4572C92.3062 26.3051 91.769 26.2201 91.3437 26.1274L90.5984 25.9656C89.5923 25.7444 88.6347 25.4657 88.0884 24.7003C87.3369 23.6493 87.4454 22.3218 88.3512 21.3939C88.5997 21.1382 88.8969 20.935 89.2253 20.796C89.5536 20.6571 89.9065 20.5853 90.263 20.5849H94.2353V22.3895H90.2623C89.5806 22.3895 89.1657 23.2033 89.5667 23.7081C89.8198 24.0262 90.3024 24.1437 90.7131 24.237L92.0061 24.5261C93.1422 24.7798 94.1565 24.8324 94.8389 26.0908C95.6258 27.5428 94.868 29.2645 93.4167 29.7941C93.23 29.8633 93.062 29.9013 92.8967 29.9255C92.4936 29.9808 92.0117 29.9573 91.5968 29.9573L91.5961 29.9552ZM81.2453 20.5849V29.9573H83.05V21.8882C83.05 21.1318 82.922 20.5835 81.9112 20.5835H81.2453V20.5849ZM81.2453 17.6795V19.48H83.05V18.9807C83.05 18.2257 82.922 17.6788 81.9112 17.6788H81.2453V17.6795ZM73.3422 24.7985C74.0267 24.3525 74.9097 24.152 75.7021 24.0829C76.3956 24.022 76.8913 23.9494 77.2301 23.8464C77.9886 23.621 77.9783 23.0132 77.4756 22.7C77.1893 22.5216 76.6666 22.3888 76.1397 22.3888H73.3781V20.5842H76.0492C78.1401 20.598 79.8223 21.5591 79.8223 23.7904V26.4967C79.8223 27.5649 79.8963 28.275 78.9968 29.0785C78.2244 29.7699 76.9757 30.1184 75.7539 30.09C74.4471 30.0589 72.8112 29.6669 72.2843 28.3144C72.1532 27.9653 72.0876 27.5949 72.0907 27.222C72.0942 26.2249 72.4986 25.3482 73.3443 24.7985H73.3422ZM74.1532 26.4337C73.7481 26.9039 73.8075 27.5635 74.2888 27.9563C75.0563 28.5813 78.0156 28.5094 78.0156 26.888V25.3088C77.0656 25.7305 76.1197 25.6821 75.2457 25.8827C74.8461 25.9753 74.4312 26.1108 74.1532 26.4337ZM72.2615 20.6208H71.494C69.2053 20.6208 67.3315 22.4946 67.3315 24.7833V29.9552H69.1362V24.7833C69.1362 23.4903 70.201 22.4255 71.494 22.4255H72.2601V20.6208H72.2615ZM84.5324 17.6795V29.9552H86.337V18.9821C86.337 18.2271 86.2091 17.6802 85.1982 17.6802H84.5331L84.5324 17.6795ZM101.243 23.5663L102.997 29.9552H104.839L107.508 20.5835H105.702L103.915 27.1134L102.134 20.5835L101.242 20.5973L100.353 20.5835L98.5706 27.1134L96.7839 20.5835H94.9793L97.6482 29.9559H99.4902L101.243 23.567V23.5663ZM121.289 20.6208H120.522C118.233 20.6208 116.359 22.4932 116.359 24.7833V29.9552H118.165V24.7833C118.165 23.4903 119.228 22.4255 120.52 22.4255H121.288V20.6208H121.289ZM109.441 24.3753C109.906 24.2211 110.387 24.1229 110.875 24.0829C111.568 24.022 112.065 23.9494 112.403 23.8464C113.162 23.621 113.15 23.0132 112.649 22.7C112.364 22.5216 111.839 22.3888 111.313 22.3888H108.229V20.5842H111.223C113.314 20.598 114.997 21.5591 114.997 23.7904V26.4967C114.997 27.5649 115.07 28.275 114.172 29.0785C113.398 29.7699 112.148 30.1198 110.926 30.09C110.084 30.0693 109.181 29.8916 108.485 29.4353C107.922 29.0646 107.496 28.5032 107.359 27.7482C107.162 26.6605 107.516 25.6407 108.327 24.9755C108.657 24.7058 109.042 24.5122 109.442 24.3739L109.441 24.3753ZM109.478 26.3321C108.962 26.7954 108.968 27.5034 109.485 27.9265C110.252 28.5523 113.191 28.5488 113.191 26.9288V25.3088C112.234 25.7333 111.327 25.6821 110.463 25.8861C110.113 25.9691 109.748 26.0887 109.477 26.3321H109.478ZM126.843 24.3843C128.195 23.8685 127.997 22.4884 126.33 22.3059C126.15 22.2864 125.968 22.2765 125.786 22.2761C124.846 22.2747 123.691 22.5638 123.691 23.7046V25.0239C124.825 24.5226 125.836 24.7694 126.844 24.3843H126.843Z" fill="#180F3D"/>
<path d="M10.064 26.3586L15.8012 32.176H10.064V26.3586ZM35.379 19.6469L44.6963 29.0974C45.4401 29.8559 45.4401 31.081 44.6963 31.8394C43.9483 32.5936 42.74 32.5936 41.992 31.8394L29.9706 19.6469H35.379ZM28.9934 19.6469H23.585L35.6064 31.8363C36.3544 32.5905 37.5627 32.5905 38.3106 31.8363C39.0544 31.0779 39.0544 29.8528 38.3106 29.0943L28.9934 19.6469ZM22.6047 19.6469H17.1963L29.2208 31.8363C29.9688 32.5905 31.1771 32.5905 31.925 31.8363C32.6688 31.0779 32.6688 29.8528 31.925 29.0943L22.6047 19.6469ZM16.2191 19.6469H10.8107L17.7648 26.6982C18.5128 27.4524 19.7211 27.4524 20.469 26.6982C21.2128 25.9398 21.2128 24.7146 20.469 23.9562L16.2191 19.6469ZM10.0732 19.8837V25.3677L16.7815 32.176H22.1899L10.0732 19.8837Z" fill="white"/>
<circle cx="26.0764" cy="26.0764" r="26.0764" fill="url(#paint1_linear_504_2625)"/>
<path d="M10.064 26.3586L15.8012 32.176H10.064V26.3586ZM35.379 19.647L44.6963 29.0975C45.4401 29.8559 45.4401 31.0811 44.6963 31.8395C43.9483 32.5937 42.74 32.5937 41.992 31.8395L29.9706 19.647H35.379ZM28.9934 19.647H23.585L35.6064 31.8364C36.3544 32.5906 37.5627 32.5906 38.3106 31.8364C39.0544 31.078 39.0544 29.8528 38.3106 29.0944L28.9934 19.647ZM22.6047 19.647H17.1963L29.2208 31.8364C29.9688 32.5906 31.1771 32.5906 31.925 31.8364C32.6688 31.078 32.6688 29.8528 31.925 29.0944L22.6047 19.647ZM16.2191 19.647H10.8107L17.7648 26.6983C18.5128 27.4525 19.7211 27.4525 20.469 26.6983C21.2128 25.9398 21.2128 24.7147 20.469 23.9563L16.2191 19.647ZM10.0732 19.8838V25.3678L16.7815 32.176H22.1899L10.0732 19.8838Z" fill="white"/>
<defs>
<linearGradient id="paint0_linear_504_2625" x1="1.14826e-06" y1="42.315" x2="47.4964" y2="8.85159" gradientUnits="userSpaceOnUse">
<stop stop-color="#FF6C40"/>
<stop offset="1" stop-color="#FFB800"/>
</linearGradient>
<linearGradient id="paint1_linear_504_2625" x1="1.14826e-06" y1="42.315" x2="47.4964" y2="8.85159" gradientUnits="userSpaceOnUse">
<stop stop-color="#FF6C40"/>
<stop offset="1" stop-color="#FFB800"/>
</linearGradient>
</defs>
</svg>
