<svg width="4665" height="1321" viewBox="0 0 4665 1321" fill="none" xmlns="http://www.w3.org/2000/svg">
<path d="M4457.71 110V220H4561.21H4664.71V110V-3.27826e-06H4561.21H4457.71V110Z" fill="black"/>
<path d="M295.208 36.6C292.508 36.8 283.008 37.4 274.208 38C206.008 42.6 150.408 56.1 113.208 77.2C55.3075 110 26.5075 163.2 18.7075 252C16.0075 283.5 16.5075 350.3 19.8075 387C29.7075 498.4 67.5075 544.1 179.708 580.5C203.708 588.2 234.808 596.3 277.908 606C297.908 610.5 325.008 616.9 338.208 620.2C410.008 638.2 433.208 652.7 440.708 684.1C445.908 706 445.908 758.4 440.808 782C431.808 822.9 404.708 837.8 335.008 839.8C243.408 842.6 158.008 830.5 55.4075 800.3C45.0075 797.3 36.2075 795.2 35.7075 795.6C34.8075 796.7 -0.592459 961 0.00754131 961.6C1.30754 962.9 34.4075 975.9 49.7075 981.1C109.608 1001.6 172.908 1014.4 247.208 1021.1C266.408 1022.8 339.308 1023.4 364.208 1022.1C497.808 1014.9 574.208 985.7 617.308 925.3C651.608 877.3 664.108 808.1 659.808 690C657.508 627.2 652.308 597.9 638.208 568.5C610.708 511.3 549.208 478.4 402.708 442.4C309.908 419.6 297.808 416.3 279.408 409C253.708 398.7 241.908 387 236.708 366.5C233.008 352 231.508 310.6 233.808 287.5C237.808 247.6 253.908 231.2 295.708 224.5C329.408 219.1 410.308 220.9 480.208 228.6C507.208 231.6 554.708 238.3 591.108 244.3C607.408 247 617.108 248.2 617.308 247.5C617.908 245.6 638.808 67.7 638.408 67.4C637.708 66.6 597.908 58.9 574.808 55.1C526.408 47 484.108 42 428.208 37.9C414.108 36.9 306.108 35.8 295.208 36.6Z" fill="black"/>
<path d="M2994.21 51.1999C2993.21 54.0999 2702.71 1008 2702.71 1008.5C2702.71 1008.8 2753.21 1008.9 2814.91 1008.8L2927.21 1008.5L2952.41 917.5C2966.21 867.4 2977.81 825.5 2978.21 824.2L2978.71 822L3139.51 822.2L3300.21 822.5L3325.71 914.5C3339.81 965.1 3351.51 1007.1 3351.71 1007.8C3352.11 1008.8 3375.11 1009 3464.31 1008.8L3576.31 1008.5L3429.71 529.5L3283.01 50.4999L3138.81 50.1999C3024.01 49.9999 2994.51 50.1999 2994.21 51.1999ZM3193.51 441.2C3223.31 550.8 3247.71 640.8 3247.71 641.2C3247.71 641.7 3198.21 642 3137.61 642C3046.31 642 3027.61 641.8 3028.01 640.7C3028.31 639.9 3053.21 549.9 3083.31 440.7C3113.41 331.4 3138.41 242 3138.71 242C3139.01 242 3163.71 331.7 3193.51 441.2Z" fill="black"/>
<path d="M1056.71 293.6C1039.31 294.5 1018.11 296.3 1008.21 297.6C878.408 315.1 802.408 383.5 781.708 501.7C776.508 531.4 776.408 532.6 776.008 644.5C775.508 754.6 775.908 771.2 779.808 798.9C786.908 849.7 804.808 894.6 831.208 927.5C868.508 974.1 926.008 1004.4 1000.11 1016.4C1034.21 1022 1057.51 1023.4 1102.21 1022.7C1155.61 1021.8 1200.71 1016.8 1255.71 1005.5C1294.91 997.5 1352.71 980.9 1352.71 977.8C1352.71 976.6 1323.81 827.2 1323.11 824.9C1322.71 823.4 1322.21 823.4 1317.91 824.6C1277.11 837 1207.41 848.5 1151.01 852.1C1126.21 853.7 1073.61 852.8 1059.91 850.6C1018.91 843.9 999.408 830.2 989.608 800.9C985.508 788.5 983.708 775.7 983.008 751.7L982.408 731H1171.51H1360.71V657.2C1360.71 580.6 1359.81 547.8 1357.11 523.7C1344.91 413 1296.61 344.9 1207.51 312.9C1185.01 304.9 1153.91 298.3 1124.71 295.6C1109.21 294.1 1069.01 292.9 1056.71 293.6ZM1095.71 457C1117.41 459.7 1131.31 465.6 1142.81 477C1159.11 493.3 1164.01 510.3 1164.11 551.5L1164.21 575.5H1073.71H983.208L982.908 560.5C982.108 519.3 989.208 495.8 1007.51 478.8C1018.81 468.4 1032.81 461.7 1049.81 458.6C1064.41 455.9 1081.81 455.3 1095.71 457Z" fill="black"/>
<path d="M2392.21 294.1C2352.91 296.8 2307.21 308.7 2261.51 328.1C2243.71 335.7 2217.11 349.1 2203.41 357.3L2192.61 363.8L2191.41 360.7C2190.71 358.9 2185.81 346.4 2180.61 332.8L2171.21 308H2090.01H2008.71V814.5C2008.71 1279.2 2008.81 1321 2010.31 1321C2011.21 1321 2057.31 1314.7 2112.71 1307C2168.21 1299.3 2214.01 1293 2214.61 1293C2215.41 1293 2215.71 1250.6 2215.71 1148.2V1003.3L2224.01 1005.1C2259.61 1013 2306.01 1019.1 2352.51 1022.1C2376.71 1023.6 2425.11 1022.8 2441.21 1020.6C2509.11 1011.1 2556.51 984.1 2588.11 937C2595.71 925.7 2607.61 901.3 2612.51 887C2620.11 864.8 2625.01 840.9 2628.41 810.5C2629.71 798.9 2630.01 775.6 2630.41 674.5C2630.91 550.6 2630.41 523.1 2627.21 497C2617.21 414.8 2585.61 357.3 2532.51 324.4C2503.71 306.5 2469.71 296.7 2427.21 294C2410.71 292.9 2408.21 292.9 2392.21 294.1ZM2358.71 474C2378.61 475.9 2391.11 480.8 2401.81 490.8C2412.51 500.8 2418.41 512.8 2421.21 530.3C2423.41 544 2423.41 772.5 2421.21 785.3C2416.41 812.6 2403.31 829.8 2380.81 838C2368.81 842.4 2359.31 843.4 2334.71 842.7C2312.21 842.1 2289.81 839.8 2263.71 835.6C2248.01 833 2226.61 828.8 2219.51 827L2215.71 825.9V677V528.2L2220.01 524.5C2226.61 518.8 2246.21 505.9 2257.81 499.7C2288.01 483.5 2315.51 475.3 2346.21 473.1C2347.31 473.1 2352.91 473.5 2358.71 474Z" fill="black"/>
<path d="M4073.21 293.6C4014.21 297.1 3938.81 321.9 3879.51 357.3L3868.81 363.7L3863.91 351.1C3861.21 344.2 3856.41 331.6 3853.21 323.2L3847.31 308H3766.01H3684.71V814.5C3684.71 1282.5 3684.81 1321 3686.31 1321C3687.21 1321 3733.41 1314.7 3788.91 1307C3844.41 1299.3 3890.21 1293 3890.71 1293C3891.31 1293 3891.71 1239.7 3891.71 1148.2V1003.4L3910.01 1007.1C3940.21 1013.2 3966.51 1016.8 4007.71 1020.7C4031.21 1022.9 4096.61 1023.2 4112.71 1021.2C4143.71 1017.3 4172.21 1009.2 4195.61 997.3C4214.81 987.7 4226.51 979.2 4241.71 964C4270.91 934.8 4288.71 898.9 4298.71 849C4306.11 812 4306.71 797.7 4306.71 658C4306.71 519.1 4306.11 505.2 4298.71 468C4278.41 366 4218.11 307.2 4121.71 295.6C4108.71 294.1 4083.61 293 4073.21 293.6ZM4035.71 474C4048.31 475.2 4055.51 477.2 4065.41 482C4080.71 489.5 4090.61 502.8 4096.01 523L4098.21 531.5V658V784.5L4096.01 792.9C4089.81 816 4075.81 831.9 4055.91 838.4C4042.81 842.7 4036.21 843.3 4011.71 842.7C3989.51 842.1 3975.61 840.8 3948.21 836.9C3934.51 834.9 3902.91 828.9 3895.51 826.9L3891.71 825.9V677V528L3897.51 523.5C3930.21 497.4 3976.31 477.5 4012.01 474.1C4023.61 472.9 4025.11 472.9 4035.71 474Z" fill="black"/>
<path d="M1873.71 296.6C1828.61 308.4 1758.01 339.2 1711.21 367.5C1703.41 372.3 1699.01 374.4 1698.61 373.7C1698.31 373 1694.91 358 1691.21 340.2L1684.41 308H1598.01H1511.71V658.5V1009H1615.21H1718.71V795.1V581.2L1729.51 574.2C1765.21 551.1 1827.21 520.5 1887.91 496C1896.31 492.6 1903.51 489.5 1903.91 489.2C1904.31 488.8 1900.81 445.5 1896.11 393C1891.51 340.5 1887.71 296.7 1887.71 295.7C1887.71 293.4 1885.31 293.5 1873.71 296.6Z" fill="black"/>
<path d="M4457.71 658.5V1009H4561.21H4664.71V658.5V308H4561.21H4457.71V658.5Z" fill="black"/>
</svg>
